<svg width="517" height="419" viewBox="0 0 517 419" fill="none" xmlns="http://www.w3.org/2000/svg">
<path d="M229.989 318.378C219.788 305.581 213.997 286.443 212.616 260.963C211.249 235.63 214.942 216.048 223.696 202.216C232.451 188.385 245.809 180.979 263.773 180C281.729 179.024 295.81 184.935 306.014 197.734C316.219 210.533 322.006 229.6 323.376 254.934C324.744 280.27 321.052 299.888 312.301 313.79C303.55 327.691 290.193 335.13 272.232 336.107C254.27 337.087 240.189 331.177 229.989 318.378Z" fill="white"/>
<path d="M229.989 318.378C219.788 305.581 213.997 286.443 212.616 260.963C211.249 235.63 214.942 216.048 223.696 202.216C232.451 188.385 245.809 180.979 263.773 180C281.729 179.024 295.81 184.935 306.014 197.734C316.219 210.533 322.006 229.6 323.376 254.934C324.744 280.27 321.052 299.888 312.301 313.79C303.55 327.691 290.193 335.13 272.232 336.107C254.27 337.087 240.189 331.177 229.989 318.378Z" stroke="#409AE9" stroke-width="3" stroke-miterlimit="10"/>
<path d="M291.651 299.655C295.616 290.42 297.069 276.013 296.01 256.434C294.942 236.714 291.941 222.549 287.007 213.938C282.072 205.328 274.722 201.286 264.955 201.813C255.184 202.34 248.314 207.187 244.346 216.355C240.378 225.523 238.924 239.895 239.983 259.47C241.043 279.047 244.043 293.212 248.984 301.965C253.925 310.717 261.28 314.827 271.049 314.294C280.814 313.77 287.682 308.89 291.651 299.655Z" fill="#DEE5FF"/>
<path d="M291.651 299.655C295.616 290.42 297.069 276.013 296.01 256.434C294.942 236.714 291.941 222.549 287.007 213.938C282.072 205.328 274.722 201.286 264.955 201.813C255.184 202.34 248.314 207.187 244.346 216.355C240.378 225.523 238.924 239.895 239.983 259.47C241.043 279.047 244.043 293.212 248.984 301.965C253.925 310.717 261.28 314.827 271.049 314.294C280.814 313.77 287.682 308.89 291.651 299.655Z" stroke="#409AE9" stroke-width="3" stroke-miterlimit="10"/>
<path d="M376.327 290.253H158.64V292.045H376.327V290.253Z" fill="#DEE5FF"/>
<path d="M468.814 290.38H446.87C446.805 290.38 446.752 290.433 446.752 290.499V292.051C446.752 292.117 446.805 292.17 446.87 292.17H468.814C468.879 292.17 468.932 292.117 468.932 292.051V290.499C468.932 290.433 468.879 290.38 468.814 290.38Z" fill="#DEE5FF"/>
<path d="M72.2544 290.38H50.3112C50.2458 290.38 50.1929 290.433 50.1929 290.499V292.051C50.1929 292.117 50.2458 292.17 50.3112 292.17H72.2544C72.3197 292.17 72.3727 292.117 72.3727 292.051V290.499C72.3727 290.433 72.3197 290.38 72.2544 290.38Z" fill="#DEE5FF"/>
<path d="M449.713 327.454H427.691C427.648 327.454 427.612 327.489 427.612 327.533V328.568C427.612 328.612 427.648 328.647 427.691 328.647H449.713C449.757 328.647 449.792 328.612 449.792 328.568V327.533C449.792 327.489 449.757 327.454 449.713 327.454Z" fill="#C4CEFE"/>
<path d="M58.9196 158C62.3881 158 65.4041 155.491 65.8723 152.067C66.1402 150.114 65.9854 148.127 65.4183 146.239C64.8512 144.351 63.885 142.606 62.5846 141.12C61.2842 139.635 59.6797 138.444 57.8789 137.628C56.0782 136.812 54.1229 136.389 52.1445 136.388C51.8301 136.388 51.5197 136.403 51.2119 136.422C50.8913 132.655 49.1218 129.156 46.273 126.657C43.4242 124.159 39.7165 122.853 35.9242 123.013C32.132 123.173 28.5485 124.787 25.9222 127.517C23.296 130.247 21.83 133.882 21.8306 137.663C21.8306 138.022 21.849 138.377 21.874 138.73C19.4795 137.398 16.7581 136.763 14.019 136.895C6.62699 137.228 0.550274 143.119 0.0241516 150.472L0.0123104 150.647C-0.22576 154.647 3.02042 158 7.04131 158H58.9196Z" fill="#DEE5FF"/>
<path d="M507.981 123C518.993 123 519.602 106.46 508.603 105.927C508.302 105.912 508 105.904 507.696 105.904C505.786 105.903 503.887 106.2 502.068 106.784C501.33 102.325 499.011 98.2779 495.534 95.3811C492.057 92.4844 487.652 90.9304 483.123 91.0024C478.594 91.0743 474.242 92.7674 470.859 95.7731C467.476 98.7788 465.287 102.897 464.692 107.378C460.991 105.617 456.787 105.209 452.815 106.228C443.186 108.702 445.207 123 455.151 123H507.981Z" fill="#DEE5FF"/>
<path d="M368.102 32C378.958 32 379.559 15.4613 368.716 14.9281C368.421 14.9141 368.123 14.907 367.823 14.907C365.94 14.9061 364.068 15.2027 362.275 15.786C361.548 11.3259 359.263 7.27856 355.835 4.38145C352.407 1.48434 348.065 -0.0697283 343.601 0.00240265C339.136 0.0745336 334.845 1.76806 331.51 4.77442C328.176 7.78078 326.019 11.8999 325.433 16.3811C321.785 14.6198 317.641 14.212 313.726 15.229C304.234 17.7035 306.226 32 316.027 32H368.102Z" fill="#DEE5FF"/>
<path d="M462.646 270.79L446.03 274.934L454.303 308.232L418.727 317.106L410.454 283.808L345.268 300.068L338.853 274.24L374.364 169.497L417.181 158.82L438.394 244.2L455.01 240.056L462.646 270.79ZM391.31 206.753L374.7 260.084L402.818 253.071L391.31 206.753Z" fill="#409AE9"/>
<path d="M185.312 294.243L168.421 291.422L162.791 325.27L126.628 319.23L132.259 285.382L66.0029 274.318L70.3711 248.063L144.528 166.119L188.054 173.39L173.616 260.179L190.505 263L185.312 294.243ZM145.287 207.055L108.877 249.364L137.46 254.138L145.287 207.055Z" fill="#409AE9"/>
<path d="M480.244 292.044H35.9102V344.003H480.244V292.044Z" fill="white"/>
<path d="M79.0775 329.09H57.0554C57.0119 329.09 56.9766 329.126 56.9766 329.169V330.205C56.9766 330.248 57.0119 330.284 57.0554 330.284H79.0775C79.1211 330.284 79.1564 330.248 79.1564 330.205V329.169C79.1564 329.126 79.1211 329.09 79.0775 329.09Z" fill="#DEE5FF"/>
<path d="M139.265 329.09H117.242C117.199 329.09 117.164 329.126 117.164 329.169V330.205C117.164 330.248 117.199 330.284 117.242 330.284H139.265C139.308 330.284 139.343 330.248 139.343 330.205V329.169C139.343 329.126 139.308 329.09 139.265 329.09Z" fill="#DEE5FF"/>
<path d="M194.043 314.926H172.021C171.978 314.926 171.942 314.962 171.942 315.005V316.041C171.942 316.084 171.978 316.12 172.021 316.12H194.043C194.087 316.12 194.122 316.084 194.122 316.041V315.005C194.122 314.962 194.087 314.926 194.043 314.926Z" fill="#DEE5FF"/>
<path d="M225.196 330.59H203.174C203.131 330.59 203.095 330.626 203.095 330.669V331.705C203.095 331.748 203.131 331.784 203.174 331.784H225.196C225.24 331.784 225.275 331.748 225.275 331.705V330.669C225.275 330.626 225.24 330.59 225.196 330.59Z" fill="#DEE5FF"/>
<path d="M302.063 330.59H280.041C279.997 330.59 279.962 330.626 279.962 330.669V331.705C279.962 331.748 279.997 331.784 280.041 331.784H302.063C302.106 331.784 302.142 331.748 302.142 331.705V330.669C302.142 330.626 302.106 330.59 302.063 330.59Z" fill="#DEE5FF"/>
<path d="M388.059 329.705H366.037C365.994 329.705 365.958 329.74 365.958 329.784V330.819C365.958 330.863 365.994 330.898 366.037 330.898H388.059C388.103 330.898 388.138 330.863 388.138 330.819V329.784C388.138 329.74 388.103 329.705 388.059 329.705Z" fill="#DEE5FF"/>
<path d="M114.872 312.631H92.8504C92.8068 312.631 92.7715 312.666 92.7715 312.71V313.745C92.7715 313.789 92.8068 313.824 92.8504 313.824H114.872C114.916 313.824 114.951 313.789 114.951 313.745V312.71C114.951 312.666 114.916 312.631 114.872 312.631Z" fill="#DEE5FF"/>
<path d="M267.918 312.049H245.896C245.853 312.049 245.817 312.085 245.817 312.128V313.164C245.817 313.207 245.853 313.243 245.896 313.243H267.918C267.962 313.243 267.997 313.207 267.997 313.164V312.128C267.997 312.085 267.962 312.049 267.918 312.049Z" fill="#DEE5FF"/>
<path d="M423.85 311.956H401.827C401.784 311.956 401.749 311.991 401.749 312.035V313.07C401.749 313.114 401.784 313.149 401.827 313.149H423.85C423.893 313.149 423.928 313.114 423.928 313.07V312.035C423.928 311.991 423.893 311.956 423.85 311.956Z" fill="#DEE5FF"/>
<path d="M347.098 306.402H325.076C325.032 306.402 324.997 306.437 324.997 306.481V307.516C324.997 307.56 325.032 307.595 325.076 307.595H347.098C347.142 307.595 347.177 307.56 347.177 307.516V306.481C347.177 306.437 347.142 306.402 347.098 306.402Z" fill="#DEE5FF"/>
<path d="M295.921 72.3172C295.921 72.3172 324.856 57.192 329.886 83.4513C334.917 109.711 303.679 109.922 303.679 109.922L295.921 72.3172Z" fill="#DEE5FF"/>
<path d="M295.921 72.3172C295.921 72.3172 324.856 57.192 329.886 83.4513C334.917 109.711 303.679 109.922 303.679 109.922L295.921 72.3172Z" stroke="#409AE9" stroke-width="3" stroke-miterlimit="10"/>
<path d="M330.222 85.3197C330.222 85.3197 340.4 83.4814 344.437 83.4814C348.473 83.4814 349.28 83.6838 350.087 88.5395C350.895 93.3953 351.903 101.683 358.966 101.683H401.749" stroke="#409AE9" stroke-width="3" stroke-miterlimit="10"/>
<path d="M303.081 117.636C310.927 116.088 315.042 103.405 312.272 89.3075C309.501 75.21 300.894 65.0368 293.048 66.585C285.202 68.1331 281.087 80.8164 283.857 94.9139C286.628 109.011 295.235 119.185 303.081 117.636Z" fill="white"/>
<path d="M303.081 117.636C310.927 116.088 315.042 103.405 312.272 89.3075C309.501 75.21 300.894 65.0368 293.048 66.585C285.202 68.1331 281.087 80.8164 283.857 94.9139C286.628 109.011 295.235 119.185 303.081 117.636Z" stroke="#409AE9" stroke-width="3" stroke-miterlimit="10"/>
<path d="M296.353 117.974C302.652 116.738 305.627 104.829 302.998 91.3734C300.368 77.9181 293.129 68.0126 286.83 69.2487C280.53 70.4848 277.555 82.3945 280.185 95.8497C282.815 109.305 290.053 119.211 296.353 117.974Z" fill="white"/>
<path d="M296.353 117.974C302.652 116.738 305.627 104.829 302.998 91.3734C300.368 77.9181 293.129 68.0126 286.83 69.2487C280.53 70.4848 277.555 82.3945 280.185 95.8497C282.815 109.305 290.053 119.211 296.353 117.974Z" stroke="#409AE9" stroke-width="3" stroke-miterlimit="10"/>
<path d="M289.123 88.9517C290.489 88.9517 291.595 87.288 291.595 85.2356C291.595 83.1833 290.489 81.5195 289.123 81.5195C287.758 81.5195 286.651 83.1833 286.651 85.2356C286.651 87.288 287.758 88.9517 289.123 88.9517Z" fill="#409AE9"/>
<path d="M292.925 106.146C294.29 106.146 295.397 104.482 295.397 102.43C295.397 100.378 294.29 98.7139 292.925 98.7139C291.56 98.7139 290.453 100.378 290.453 102.43C290.453 104.482 291.56 106.146 292.925 106.146Z" fill="#409AE9"/>
<path d="M232.38 117.723H216.387C213.764 117.723 211.166 117.205 208.742 116.199C206.318 115.193 204.115 113.719 202.26 111.86C200.405 110.001 198.933 107.794 197.929 105.365C196.925 102.936 196.408 100.333 196.408 97.7041C196.408 95.075 196.925 92.4717 197.929 90.0427C198.933 87.6137 200.404 85.4066 202.259 83.5476C204.115 81.6885 206.317 80.2137 208.741 79.2076C211.165 78.2014 213.764 77.6836 216.387 77.6836H231.126L232.38 117.723Z" fill="#DEE5FF"/>
<path d="M232.38 117.723H216.387C213.764 117.723 211.166 117.205 208.742 116.199C206.318 115.193 204.115 113.719 202.26 111.86C200.405 110.001 198.933 107.794 197.929 105.365C196.925 102.936 196.408 100.333 196.408 97.7041C196.408 95.075 196.925 92.4717 197.929 90.0427C198.933 87.6137 200.404 85.4066 202.259 83.5476C204.115 81.6885 206.317 80.2137 208.741 79.2076C211.165 78.2014 213.764 77.6836 216.387 77.6836H231.126L232.38 117.723Z" stroke="#409AE9" stroke-width="3" stroke-miterlimit="10"/>
<path d="M232.805 107.044H261.96C262.08 107.044 262.196 107.092 262.28 107.177C262.365 107.262 262.413 107.377 262.413 107.498V112.783C262.413 112.904 262.365 113.019 262.28 113.104C262.196 113.189 262.08 113.237 261.96 113.237H232.805V107.044Z" fill="white"/>
<path d="M232.805 107.044H261.96C262.08 107.044 262.196 107.092 262.28 107.177C262.365 107.262 262.413 107.377 262.413 107.498V112.783C262.413 112.904 262.365 113.019 262.28 113.104C262.196 113.189 262.08 113.237 261.96 113.237H232.805V107.044Z" stroke="#409AE9" stroke-width="3" stroke-miterlimit="10"/>
<path d="M232.805 80.9316H261.96C262.08 80.9316 262.196 80.9794 262.28 81.0645C262.365 81.1496 262.413 81.265 262.413 81.3853V86.671C262.413 86.7913 262.365 86.9067 262.28 86.9918C262.196 87.0768 262.08 87.1246 261.96 87.1246H232.805V80.9316Z" fill="white"/>
<path d="M232.805 80.9316H261.96C262.08 80.9316 262.196 80.9794 262.28 81.0645C262.365 81.1496 262.413 81.265 262.413 81.3853V86.671C262.413 86.7913 262.365 86.9067 262.28 86.9918C262.196 87.0768 262.08 87.1246 261.96 87.1246H232.805V80.9316Z" stroke="#409AE9" stroke-width="3" stroke-miterlimit="10"/>
<path d="M123.597 63.695C123.597 63.695 152.336 59.8445 154.37 65.7925C156.403 71.7405 156.626 74.4861 155.659 86.0374C154.692 97.5888 164.519 97.8085 169.998 97.7026C175.477 97.5967 202.22 97.7169 202.22 97.7169" stroke="#409AE9" stroke-width="3" stroke-linecap="round" stroke-linejoin="round"/>
<path d="M237.614 72.1162H228.118C227.667 72.1162 227.302 72.4821 227.302 72.9334V121.23C227.302 121.681 227.667 122.047 228.118 122.047H237.614C238.065 122.047 238.43 121.681 238.43 121.23V72.9334C238.43 72.4821 238.065 72.1162 237.614 72.1162Z" fill="white"/>
<path d="M237.614 72.1162H228.118C227.667 72.1162 227.302 72.4821 227.302 72.9334V121.23C227.302 121.681 227.667 122.047 228.118 122.047H237.614C238.065 122.047 238.43 121.681 238.43 121.23V72.9334C238.43 72.4821 238.065 72.1162 237.614 72.1162Z" stroke="#409AE9" stroke-width="3" stroke-miterlimit="10"/>
<path d="M174.902 402.451C170.721 402.451 166.881 401.47 163.382 399.507C159.884 397.544 157.11 394.835 155.062 391.379C153.014 387.88 151.99 383.934 151.99 379.539C151.99 375.187 153.014 371.283 155.062 367.827C157.11 364.328 159.884 361.598 163.382 359.635C166.881 357.672 170.721 356.691 174.902 356.691C179.126 356.691 182.966 357.672 186.422 359.635C189.921 361.598 192.673 364.328 194.678 367.827C196.726 371.283 197.75 375.187 197.75 379.539C197.75 383.934 196.726 387.88 194.678 391.379C192.673 394.835 189.921 397.544 186.422 399.507C182.924 401.47 179.084 402.451 174.902 402.451ZM174.902 394.451C177.59 394.451 179.958 393.854 182.006 392.659C184.054 391.422 185.654 389.672 186.806 387.411C187.958 385.15 188.534 382.526 188.534 379.539C188.534 376.552 187.958 373.95 186.806 371.731C185.654 369.47 184.054 367.742 182.006 366.547C179.958 365.352 177.59 364.755 174.902 364.755C172.214 364.755 169.825 365.352 167.734 366.547C165.686 367.742 164.086 369.47 162.934 371.731C161.782 373.95 161.206 376.552 161.206 379.539C161.206 382.526 161.782 385.15 162.934 387.411C164.086 389.672 165.686 391.422 167.734 392.659C169.825 393.854 172.214 394.451 174.902 394.451Z" fill="#2196F3"/>
<path d="M220.16 402.579C216.747 402.579 213.675 401.832 210.944 400.339C208.214 398.803 206.059 396.648 204.48 393.875C202.944 391.102 202.176 387.902 202.176 384.275C202.176 380.648 202.966 377.448 204.544 374.675C206.166 371.902 208.363 369.768 211.136 368.275C213.91 366.739 217.003 365.971 220.416 365.971C223.83 365.971 226.923 366.739 229.696 368.275C232.47 369.768 234.646 371.902 236.224 374.675C237.846 377.448 238.656 380.648 238.656 384.275C238.656 387.902 237.824 391.102 236.16 393.875C234.539 396.648 232.32 398.803 229.504 400.339C226.731 401.832 223.616 402.579 220.16 402.579ZM220.16 394.771C221.782 394.771 223.296 394.387 224.704 393.619C226.155 392.808 227.307 391.614 228.16 390.035C229.014 388.456 229.44 386.536 229.44 384.275C229.44 380.904 228.544 378.323 226.752 376.531C225.003 374.696 222.848 373.779 220.288 373.779C217.728 373.779 215.574 374.696 213.824 376.531C212.118 378.323 211.264 380.904 211.264 384.275C211.264 387.646 212.096 390.248 213.76 392.083C215.467 393.875 217.6 394.771 220.16 394.771Z" fill="#2196F3"/>
<path d="M260.973 402.579C257.559 402.579 254.487 401.832 251.757 400.339C249.026 398.803 246.871 396.648 245.293 393.875C243.757 391.102 242.989 387.902 242.989 384.275C242.989 380.648 243.778 377.448 245.357 374.675C246.978 371.902 249.175 369.768 251.949 368.275C254.722 366.739 257.815 365.971 261.229 365.971C264.642 365.971 267.735 366.739 270.509 368.275C273.282 369.768 275.458 371.902 277.037 374.675C278.658 377.448 279.469 380.648 279.469 384.275C279.469 387.902 278.637 391.102 276.973 393.875C275.351 396.648 273.133 398.803 270.317 400.339C267.543 401.832 264.429 402.579 260.973 402.579ZM260.973 394.771C262.594 394.771 264.109 394.387 265.517 393.619C266.967 392.808 268.119 391.614 268.973 390.035C269.826 388.456 270.253 386.536 270.253 384.275C270.253 380.904 269.357 378.323 267.565 376.531C265.815 374.696 263.661 373.779 261.101 373.779C258.541 373.779 256.386 374.696 254.637 376.531C252.93 378.323 252.077 380.904 252.077 384.275C252.077 387.646 252.909 390.248 254.573 392.083C256.279 393.875 258.413 394.771 260.973 394.771Z" fill="#2196F3"/>
<path d="M295.001 371.667C296.153 370.046 297.732 368.702 299.737 367.635C301.785 366.526 304.111 365.971 306.713 365.971C309.743 365.971 312.473 366.718 314.905 368.211C317.38 369.704 319.321 371.838 320.729 374.611C322.18 377.342 322.905 380.52 322.905 384.147C322.905 387.774 322.18 390.995 320.729 393.811C319.321 396.584 317.38 398.739 314.905 400.275C312.473 401.811 309.743 402.579 306.713 402.579C304.111 402.579 301.807 402.046 299.801 400.979C297.839 399.912 296.239 398.568 295.001 396.947V418.899H286.041V366.547H295.001V371.667ZM313.753 384.147C313.753 382.014 313.305 380.179 312.409 378.643C311.556 377.064 310.404 375.87 308.953 375.059C307.545 374.248 306.009 373.843 304.345 373.843C302.724 373.843 301.188 374.27 299.737 375.123C298.329 375.934 297.177 377.128 296.281 378.707C295.428 380.286 295.001 382.142 295.001 384.275C295.001 386.408 295.428 388.264 296.281 389.843C297.177 391.422 298.329 392.638 299.737 393.491C301.188 394.302 302.724 394.707 304.345 394.707C306.009 394.707 307.545 394.28 308.953 393.427C310.404 392.574 311.556 391.358 312.409 389.779C313.305 388.2 313.753 386.323 313.753 384.147Z" fill="#2196F3"/>
<path d="M342.984 402.579C340.083 402.579 337.48 402.067 335.176 401.043C332.872 399.976 331.038 398.547 329.672 396.755C328.35 394.963 327.624 392.979 327.496 390.803H336.52C336.691 392.168 337.352 393.299 338.504 394.195C339.699 395.091 341.171 395.539 342.92 395.539C344.627 395.539 345.95 395.198 346.888 394.515C347.87 393.832 348.36 392.958 348.36 391.891C348.36 390.739 347.763 389.886 346.568 389.331C345.416 388.734 343.56 388.094 341 387.411C338.355 386.771 336.179 386.11 334.472 385.427C332.808 384.744 331.358 383.699 330.12 382.291C328.926 380.883 328.328 378.984 328.328 376.595C328.328 374.632 328.883 372.84 329.992 371.219C331.144 369.598 332.766 368.318 334.856 367.379C336.99 366.44 339.486 365.971 342.344 365.971C346.568 365.971 349.939 367.038 352.456 369.171C354.974 371.262 356.36 374.099 356.616 377.683H348.04C347.912 376.275 347.315 375.166 346.248 374.355C345.224 373.502 343.838 373.075 342.088 373.075C340.467 373.075 339.208 373.374 338.312 373.971C337.459 374.568 337.032 375.4 337.032 376.467C337.032 377.662 337.63 378.579 338.824 379.219C340.019 379.816 341.875 380.435 344.392 381.075C346.952 381.715 349.064 382.376 350.728 383.059C352.392 383.742 353.822 384.808 355.016 386.259C356.254 387.667 356.894 389.544 356.936 391.891C356.936 393.939 356.36 395.774 355.208 397.395C354.099 399.016 352.478 400.296 350.344 401.235C348.254 402.131 345.8 402.579 342.984 402.579Z" fill="#2196F3"/>
<path d="M375.875 356.563L374.851 387.475H367.299L366.211 356.563H375.875ZM371.267 402.451C369.646 402.451 368.302 401.96 367.235 400.979C366.211 399.955 365.699 398.696 365.699 397.203C365.699 395.71 366.211 394.472 367.235 393.491C368.302 392.467 369.646 391.955 371.267 391.955C372.846 391.955 374.147 392.467 375.171 393.491C376.195 394.472 376.707 395.71 376.707 397.203C376.707 398.696 376.195 399.955 375.171 400.979C374.147 401.96 372.846 402.451 371.267 402.451Z" fill="#2196F3"/>
</svg>
