<svg xmlns="http://www.w3.org/2000/svg" version="1.1" xmlns:xlink="http://www.w3.org/1999/xlink" xmlns:svgjs="http://svgjs.dev/svgjs" width="1500" height="272" viewBox="0 0 1500 272"><g transform="matrix(1,0,0,1,-0.9090909090911055,0.19468484403645903)"><svg viewBox="0 0 396 72" data-background-color="#ffffff" preserveAspectRatio="xMidYMid meet" height="272" width="1500" xmlns="http://www.w3.org/2000/svg" xmlns:xlink="http://www.w3.org/1999/xlink"><g id="tight-bounds" transform="matrix(1,0,0,1,0.24000000000003752,-0.05153422342141312)"><svg viewBox="0 0 395.5199999999999 72.10306844684285" height="72.10306844684285" width="395.5199999999999"><g><svg viewBox="0 0 446.43805182481753 81.3854" height="72.10306844684285" width="395.5199999999999"><g><svg viewBox="0 0 446.43805182481753 81.3854" height="81.3854" width="446.43805182481753"><g id="textblocktransform"><svg viewBox="0 0 446.43805182481753 81.3854" height="81.3854" width="446.43805182481753" id="textblock"><g><svg viewBox="0 0 446.43805182481753 81.3854" height="81.3854" width="446.43805182481753"><g><svg><g></g><g></g></svg></g><g><svg><g><svg></svg></g><g></g></svg></g><g id="text-0"><svg viewBox="0 0 446.43805182481753 81.3854" height="81.3854" width="446.43805182481753"><g transform="matrix(1,0,0,1,0,0)"><svg width="312.274" viewBox="1 -37.3 192.98 50.3" height="81.3854" data-palette-color="#0080ff"><path d="M5.5-29.85L1-31.05 1.65-33Q3.45-32.9 5.15-32.85 6.85-32.8 9.2-32.8L9.2-32.8Q11.35-32.8 13.65-32.85 15.95-32.9 18.05-33L18.05-33 18.75-31.05 13.05-29.9Q13-25.75 13-22.4 13-19.05 13-15.65L13-15.65Q13-13.05 12.98-9.68 12.95-6.3 13.05-3.45L13.05-3.45Q16.15-3.1 18.82-3.3 21.5-3.5 23.65-4.45L23.65-4.45 24.8-10.5 28-10.5Q28-8.2 28.13-5.33 28.25-2.45 28.45 0L28.45 0Q22.35-0.1 17.6-0.13 12.85-0.15 9.4-0.15L9.4-0.15Q6.85-0.15 5.03-0.1 3.2-0.05 1.65 0L1.65 0 1.05-1.9 5.5-2.95Q5.6-6.9 5.68-9.83 5.75-12.75 5.75-15.15L5.75-15.15Q5.75-18.55 5.78-22.18 5.8-25.8 5.5-29.85L5.5-29.85ZM41.85-21.85L41.85-21.85Q44.35-21.85 46.47-20.75 48.6-19.65 49.87-17.43 51.15-15.2 51.15-11.85L51.15-11.85Q50.05-11.65 48.25-11.5 46.45-11.35 44.3-11.28 42.15-11.2 40-11.2L40-11.2Q38.4-11.2 37.25-11.25 36.1-11.3 35.7-11.35L35.7-11.35 35.7-13.75Q36.25-13.75 37.37-13.75 38.5-13.75 39.9-13.8 41.3-13.85 42.62-13.95 43.95-14.05 44.85-14.2L44.85-14.2Q44.8-15.25 44.27-16.32 43.75-17.4 42.7-18.15 41.65-18.9 40-18.9L40-18.9Q39-17.95 38.4-16.28 37.8-14.6 37.8-12.4L37.8-12.4Q37.8-7.9 39.67-5.78 41.55-3.65 44.3-3.65L44.3-3.65Q47.1-3.65 50.2-5.65L50.2-5.65 51.3-3.35Q49.15-1.4 46.7-0.55 44.25 0.3 41.85 0.3L41.85 0.3Q39.05 0.3 36.62-0.93 34.2-2.15 32.72-4.6 31.25-7.05 31.25-10.7L31.25-10.7Q31.25-14.4 32.77-16.88 34.3-19.35 36.72-20.6 39.15-21.85 41.85-21.85ZM65.9-21.8L65.9-21.8Q68.55-21.8 70.5-20.18 72.45-18.55 72.45-15.25L72.45-15.25Q72.45-13.1 72.37-11.65 72.3-10.2 72.22-9.08 72.15-7.95 72.15-6.75L72.15-6.75Q72.15-5.35 72.32-4.78 72.5-4.2 73.3-4.2L73.3-4.2Q74-4.2 75.4-4.85L75.4-4.85 76.3-2.65Q74.5-1.4 72.85-0.58 71.2 0.25 69.35 0.25L69.35 0.25Q67.8 0.25 66.65-0.98 65.5-2.2 65.5-4.85L65.5-4.85Q65.5-7.3 65.72-9.68 65.95-12.05 65.95-13.9L65.95-13.9Q65.95-15.45 65.5-16.4 65.05-17.35 64-17.7L64-17.7Q61.7-17.6 59.6-16.85 57.5-16.1 55.3-14.95L55.3-14.95 54-17.1Q56.85-19.2 59.77-20.5 62.7-21.8 65.9-21.8ZM69.45-13.95L69.45-13.95 66.45-9.8Q65.35-9.55 64.5-9.3 63.65-9.05 62.95-8.9L62.95-8.9Q61.25-8.55 60.6-8.03 59.95-7.5 59.95-6.2L59.95-6.2Q59.95-5.15 60.5-4.55 61.05-3.95 62-3.95L62-3.95Q63.15-3.95 64.92-5.03 66.7-6.1 67.95-7.75L67.95-7.75 68.9-5.7Q68.1-4.7 66.62-3.25 65.15-1.8 63.1-0.68 61.05 0.45 58.6 0.45L58.6 0.45Q57.35 0.45 56.17-0.23 55-0.9 54.22-2.25 53.45-3.6 53.45-5.6L53.45-5.6Q53.45-7.7 54.72-8.88 56-10.05 58.2-10.7 60.4-11.35 63.05-11.8L63.05-11.8Q64.85-12.1 66.4-12.58 67.95-13.05 69.45-13.95ZM88.29-21.7L88.29-21.7Q88.34-20.55 88.44-19 88.54-17.45 88.64-16.18 88.74-14.9 88.74-14.45L88.74-14.45 89.09-3.1 94.04-1.85 93.29 0Q92.44-0.05 91.04-0.08 89.64-0.1 88.14-0.13 86.64-0.15 85.44-0.15L85.44-0.15Q83.89-0.15 82.09-0.1 80.29-0.05 78.79 0L78.79 0 78.04-1.85 82.09-2.9Q82.09-5.15 82.09-6.93 82.09-8.7 82.09-10.8L82.09-10.8Q82.09-11.95 82.07-12.93 82.04-13.9 81.99-15.13 81.94-16.35 81.79-18.15L81.79-18.15 78.39-18.7 77.69-20.8Q78.84-20.85 80.77-20.95 82.69-21.05 84.74-21.25 86.79-21.45 88.29-21.7ZM94.99-21.8L94.99-21.8Q96.39-21.8 97.59-21.28 98.79-20.75 99.89-19.6L99.89-19.6Q99.59-18.1 99.34-17 99.09-15.9 98.77-14.83 98.44-13.75 97.99-12.2L97.99-12.2 95.19-12.2Q94.84-14.05 94.17-15.43 93.49-16.8 92.34-17.3L92.34-17.3Q91.09-16.5 89.97-14.33 88.84-12.15 88.84-8.55L88.84-8.55 86.89-11.45Q87.29-14.25 88.44-16.6 89.59-18.95 91.27-20.38 92.94-21.8 94.99-21.8ZM121.19-21.75L121.19-21.75Q124.04-21.75 125.87-19.6 127.69-17.45 127.89-14.05L127.89-14.05Q127.94-13.15 127.89-11.23 127.84-9.3 127.82-7.05 127.79-4.8 127.79-2.9L127.79-2.9 131.54-1.85 130.74 0Q129.44-0.1 127.79-0.13 126.14-0.15 124.54-0.15L124.54-0.15Q122.59-0.15 121.04-0.1 119.49-0.05 118.19 0L118.19 0 117.54-1.85 121.19-2.9Q121.24-4.6 121.29-5.78 121.34-6.95 121.37-8.13 121.39-9.3 121.34-10.9L121.34-10.9Q121.29-13.95 120.24-15.35 119.19-16.75 117.14-17.2L117.14-17.2Q114.94-15.75 113.94-13.65 112.94-11.55 112.99-9.65L112.99-9.65 111.14-11.85Q111.49-14.7 112.87-16.95 114.24-19.2 116.39-20.48 118.54-21.75 121.19-21.75ZM113.04-22L113.04-22Q113.04-20.35 113.04-19.33 113.04-18.3 113.02-17.28 112.99-16.25 112.89-14.55L112.89-14.55 113.09-2.9 116.74-1.85 116.09 0Q114.39-0.1 112.89-0.13 111.39-0.15 109.59-0.15L109.59-0.15Q107.64-0.15 106.22-0.1 104.79-0.05 103.34 0L103.34 0 102.54-1.85 106.29-2.9Q106.29-4.5 106.42-6.68 106.54-8.85 106.54-10.8L106.54-10.8Q106.54-12.25 106.52-13.23 106.49-14.2 106.39-15.28 106.29-16.35 106.09-18.1L106.09-18.1 102.19-19.05 101.59-20.95Q104.54-21.1 107.17-21.38 109.79-21.65 113.04-22ZM143.64-21.75L143.64-21.75Q143.59-18.85 143.51-16.2 143.44-13.55 143.44-11.4L143.44-11.4Q143.44-9.55 143.51-7.15 143.59-4.75 143.64-2.9L143.64-2.9 147.64-1.85 146.79 0Q145.49-0.1 144.16-0.13 142.84-0.15 140.19-0.15L140.19-0.15Q137.74-0.15 136.36-0.1 134.99-0.05 133.44 0L133.44 0 132.64-1.85 136.89-2.9Q136.99-5.4 137.01-7.25 137.04-9.1 136.99-11.3L136.99-11.3Q136.99-12.45 136.96-13.35 136.94-14.25 136.89-15.38 136.84-16.5 136.69-18.25L136.69-18.25 133.14-18.9 132.39-20.8Q133.54-20.85 135.36-20.95 137.19-21.05 139.34-21.25 141.49-21.45 143.64-21.75ZM139.89-25.45L139.89-25.45Q138.29-25.45 137.14-26.65 135.99-27.85 135.99-29.6L135.99-29.6Q135.99-31.25 137.14-32.45 138.29-33.65 139.89-33.65L139.89-33.65Q141.49-33.65 142.64-32.45 143.79-31.25 143.79-29.6L143.79-29.6Q143.79-27.85 142.64-26.65 141.49-25.45 139.89-25.45ZM152.84-22.75L152.84-22.75Q153.09-28 154.81-31.2 156.54-34.4 159.06-35.85 161.59-37.3 164.19-37.3L164.19-37.3Q168.69-37.3 170.49-35L170.49-35Q170.39-33.15 169.89-31.8 169.39-30.45 168.54-29.15L168.54-29.15 165.84-29.15Q165.04-31.75 163.96-33 162.89-34.25 161.59-34.45L161.59-34.45Q160.49-33.2 159.89-30.78 159.29-28.35 159.29-24.35L159.29-24.35Q159.29-22.55 159.29-20.03 159.29-17.5 159.31-14.6 159.34-11.7 159.39-8.8 159.44-5.9 159.49-3.4L159.49-3.4 164.69-1.85 163.94 0Q163.09-0.05 161.69-0.08 160.29-0.1 158.79-0.13 157.29-0.15 156.09-0.15L156.09-0.15Q154.59-0.1 152.56-0.08 150.54-0.05 148.99 0L148.99 0 148.14-1.85 152.49-2.9Q152.59-6.25 152.59-9.15 152.59-12.05 152.61-15.25 152.64-18.45 152.84-22.75ZM148.09-18.3L148.89-21 164.59-21 165.19-17Q160.94-17.45 156.59-17.88 152.24-18.3 148.09-18.3L148.09-18.3ZM193.23-21.05L193.23-21.05 193.98-19.15 190.13-18.2Q186.78-10.95 183.61-4.03 180.43 2.9 178.43 9.5L178.43 9.5 183.03 11.05 182.23 13Q181.03 12.9 179.28 12.85 177.53 12.8 175.73 12.8L175.73 12.8Q174.53 12.8 173.01 12.83 171.48 12.85 170.13 12.9 168.78 12.95 167.98 13L167.98 13 167.18 11 173.03 9.4Q174.43 7.4 176.16 4.2 177.88 1 179.68-2.83 181.48-6.65 183.06-10.63 184.63-14.6 185.73-18.2L185.73-18.2 181.83-19.15 182.53-21.05Q184.08-21 185.31-20.98 186.53-20.95 187.83-20.95L187.83-20.95Q189.18-20.95 190.53-20.98 191.88-21 193.23-21.05ZM178.88-21L178.88-21 179.78-19.1 176.18-18.1Q176.78-16.25 177.28-14.85 177.78-13.45 178.31-12.18 178.83-10.9 179.56-9.35 180.28-7.8 181.33-5.65L181.33-5.65Q181.43-5.15 181.08-3.98 180.73-2.8 180.16-1.53 179.58-0.25 178.96 0.65 178.33 1.55 177.93 1.55L177.93 1.55Q176.53-1.55 175.38-4 174.23-6.45 173.18-8.68 172.13-10.9 170.98-13.15 169.83-15.4 168.48-18.1L168.48-18.1 164.68-19.1 165.38-21Q166.88-20.95 168.41-20.9 169.93-20.85 171.88-20.85L171.88-20.85Q173.98-20.85 175.78-20.9 177.58-20.95 178.88-21Z" opacity="1" transform="matrix(1,0,0,1,0,0)" fill="#0080ff" class="wordmark-text-0" data-fill-palette-color="primary"></path></svg></g><g><svg xmlns="http://www.w3.org/2000/svg" xmlns:xlink="http://www.w3.org/1999/xlink" version="1.1" x="331.4886" y="0" viewBox="25.7 31.3 38.7 27.400000000000002" enable-background="new 0 0 90 90" xml:space="preserve" height="81.3854" width="114.94945182481752" class="icon-dxe-0" data-fill-palette-color="accent" id="dxe-0"><path d="M46.4 56.3C46 56.5 45.5 56.7 45 56.7S44 56.6 43.6 56.3L33.3 51.5V55.9C33.3 57.5 34.6 58.7 36.1 58.7H53.8C55.4 58.7 56.6 57.4 56.6 55.9V51z" fill="#010c80" data-fill-palette-color="accent"></path><path d="M62.7 39.4L62.6 39.3C62.5 39.2 62.3 39.2 62.2 39.1L46.4 31.7C46 31.5 45.5 31.3 45 31.3S44 31.4 43.6 31.7L27.3 40.2C26.3 40.8 25.7 41.8 25.7 43.1S26.3 45.4 27.3 46L27.4 46.1C27.5 46.2 27.7 46.2 27.8 46.3L43.6 53.7C44 53.9 44.5 54 45 54S46 53.9 46.4 53.6L59.5 46.8V58.6H61.6V45.7L62.8 45.1C63.8 44.5 64.4 43.5 64.4 42.2S63.7 39.9 62.7 39.4" fill="#010c80" data-fill-palette-color="accent"></path></svg></g></svg></g></svg></g></svg></g></svg></g></svg></g><defs></defs></svg><rect width="395.5199999999999" height="72.10306844684285" fill="none" stroke="none" visibility="hidden"></rect></g></svg></g></svg>